<?xml version="1.0" encoding="UTF-8"?>
<svg xmlns="http://www.w3.org/2000/svg" viewBox="0 0 500 500" width="100%" height="100%">
  <!-- YallaVTC Official Master Brand Icon -->
  <g fill="none" fill-rule="evenodd">
    <!-- Left Location Pin (Teardrop with transparent circle cutout) -->
    <path fill-rule="evenodd" clip-rule="evenodd" d="M 148 45 C 105.5 45, 73 77.5, 73 120 C 73 165, 148 230, 148 230 C 148 230, 223 165, 223 120 C 223 77.5, 190.5 45, 148 45 Z M 148 94 A 26 26 0 1 0 148 146 A 26 26 0 1 0 148 94 Z" fill="#683EE6" />

    <!-- Right Location Pin (Teardrop with transparent circle cutout) -->
    <path fill-rule="evenodd" clip-rule="evenodd" d="M 352 45 C 309.5 45, 277 77.5, 277 120 C 277 165, 352 230, 352 230 C 352 230, 427 165, 427 120 C 427 77.5, 394.5 45, 352 45 Z M 352 94 A 26 26 0 1 0 352 146 A 26 26 0 1 0 352 94 Z" fill="#683EE6" />

    <!-- Left Curved Road Branch -->
    <path d="M 125 210 C 135 285, 205 340, 255 365" stroke="#683EE6" stroke-width="54" stroke-linecap="round" stroke-linejoin="round" fill="none" />

    <!-- Right Main Road Branch & Stem -->
    <path d="M 378 190 C 340 260, 248 320, 235 465" stroke="#683EE6" stroke-width="54" stroke-linecap="round" stroke-linejoin="round" fill="none" />

    <!-- Left Road Dashed Center Line -->
    <path d="M 125 210 C 135 285, 205 340, 255 365" stroke="#FFFFFF" stroke-width="12" stroke-dasharray="20,16" stroke-linecap="round" stroke-linejoin="round" fill="none" />

    <!-- Right Main Stem Dashed Center Line -->
    <path d="M 378 190 C 340 260, 248 320, 235 465" stroke="#FFFFFF" stroke-width="12" stroke-dasharray="20,16" stroke-linecap="round" stroke-linejoin="round" fill="none" />
  </g>
</svg>
